<svg width="22" height="20" viewBox="0 0 54 52" fill="none" xmlns="http://www.w3.org/2000/svg">
<path d="M12.2415 51.997H0.662954V16.9291H12.2415V51.997ZM6.53027 0.0204588C5.70523 -0.0478694 4.87505 0.0553817 4.09134 0.323791C3.30764 0.592201 2.58717 1.02003 1.97473 1.58068C1.36229 2.14132 0.870977 2.8228 0.531342 3.58274C0.191706 4.34267 0.01101 5.16481 0.000487618 5.99804C-0.0100347 6.83126 0.149842 7.65776 0.470178 8.42614C0.790513 9.19452 1.26446 9.88834 1.86254 10.4645C2.46062 11.0406 3.17006 11.4867 3.94673 11.7751C4.72341 12.0635 5.55071 12.188 6.37721 12.1408H6.45524C7.28447 12.2104 8.11905 12.1068 8.9066 11.8363C9.69416 11.5659 10.4177 11.1346 11.0318 10.5694C11.6459 10.0042 12.1374 9.31733 12.4753 8.5519C12.8132 7.78646 12.9903 6.95899 12.9955 6.1214C13.0007 5.28381 12.8338 4.45417 12.5054 3.68456C12.177 2.91495 11.6941 2.22197 11.087 1.64911C10.48 1.07625 9.76182 0.635867 8.97767 0.355601C8.19353 0.0753356 7.3603 -0.0387652 6.53027 0.0204588ZM18.6521 51.997H30.2306V32.4148C30.1859 31.4518 30.315 30.4886 30.6118 29.572C31.0449 28.3315 31.8483 27.2561 32.9121 26.4931C33.9758 25.73 35.2479 25.3166 36.5541 25.3094C40.7558 25.3094 42.4214 28.5237 42.4214 33.2395V51.997H54V31.8891C54 21.1192 48.2978 16.1043 40.6687 16.1043C38.5705 16.016 36.4883 16.5083 34.6486 17.5278C32.8088 18.5472 31.2818 20.0547 30.2336 21.8865V16.9291H18.6521C18.8051 20.2189 18.6521 52 18.6521 52V51.997Z" fill="white"/>
</svg>
